<svg width="40" height="40" viewBox="0 0 40 40" fill="none" xmlns="http://www.w3.org/2000/svg">
<g id="jam:padlock-alt">
<path id="Vector" d="M20 33.3333C21.7681 33.3333 23.4638 32.6309 24.714 31.3807C25.9643 30.1304 26.6667 28.4348 26.6667 26.6666C26.6667 24.8985 25.9643 23.2028 24.714 21.9526C23.4638 20.7024 21.7681 20 20 20C18.2319 20 16.5362 20.7024 15.286 21.9526C14.0357 23.2028 13.3333 24.8985 13.3333 26.6666C13.3333 28.4348 14.0357 30.1304 15.286 31.3807C16.5362 32.6309 18.2319 33.3333 20 33.3333ZM13.3333 19.2133V9.99998C13.3333 8.23187 14.0357 6.53618 15.286 5.28593C16.5362 4.03569 18.2319 3.33331 20 3.33331C21.7681 3.33331 23.4638 4.03569 24.714 5.28593C25.9643 6.53618 26.6667 8.23187 26.6667 9.99998V19.2133C28.1762 20.5635 29.2402 22.3402 29.7179 24.3083C30.1955 26.2764 30.0644 28.3432 29.3417 30.2351C28.6191 32.127 27.339 33.7549 25.6709 34.9034C24.0028 36.0519 22.0253 36.6669 20 36.6669C17.9748 36.6669 15.9972 36.0519 14.3291 34.9034C12.661 33.7549 11.3809 32.127 10.6583 30.2351C9.93562 28.3432 9.80446 26.2764 10.2821 24.3083C10.7598 22.3402 11.8238 20.5635 13.3333 19.2133ZM16.6667 17.2333C17.7375 16.8563 18.8648 16.6646 20 16.6666C21.1683 16.6666 22.29 16.8666 23.3333 17.235V9.99998C23.3333 9.11592 22.9821 8.26808 22.357 7.64296C21.7319 7.01784 20.8841 6.66665 20 6.66665C19.1159 6.66665 18.2681 7.01784 17.643 7.64296C17.0179 8.26808 16.6667 9.11592 16.6667 9.99998V17.2333ZM20 30C19.1159 30 18.2681 29.6488 17.643 29.0237C17.0179 28.3985 16.6667 27.5507 16.6667 26.6666C16.6667 25.7826 17.0179 24.9347 17.643 24.3096C18.2681 23.6845 19.1159 23.3333 20 23.3333C20.8841 23.3333 21.7319 23.6845 22.357 24.3096C22.9821 24.9347 23.3333 25.7826 23.3333 26.6666C23.3333 27.5507 22.9821 28.3985 22.357 29.0237C21.7319 29.6488 20.8841 30 20 30Z" fill="white"/>
</g>
</svg>
